# xmcd
#
# Track frame offsets: 
#        150
#        27255
#        58421
#        80705
#        96369
#        131035
#        151896
#        174348
#        188461
#        221456
#        247533
#
# Disc length: 3567 seconds
#
# Revision: 3
# Processed by: cddbd v1.5.2PL0 Copyright (c) Steve Scherf et al.
# Submitted via: ExactAudioCopyFreeDBPlugin 1.0
#
DISCID=8a0ded0b
DTITLE=Various Artist - Summer Breezin' 2019 - Disc 1
DYEAR=2019
DGENRE=Jazz
TTITLE0=Melissa Aldana - La Madrina
TTITLE1=Jonathan Blake - West Berkley Street
TTITLE2=Keiko Matsui - Spirit Dance
TTITLE3=John Patitucci - The Call
TTITLE4=Naomi Moon Siegal - Jaam Rek
TTITLE5=Quiana Lynell - We Are
TTITLE6=Charnette Moffett - Holy Spirit
TTITLE7=Dan Costa - Compelling
TTITLE8=Ben Monder - Galveston
TTITLE9=Ernest Melton - P.B.S.
TTITLE10=Ulysses Queens Jr. - Oh Freedom
EXTD=YEAR: 2019
EXTT0=
EXTT1=
EXTT2=
EXTT3=
EXTT4=
EXTT5=
EXTT6=
EXTT7=
EXTT8=
EXTT9=
EXTT10=
PLAYORDER=
